Coordinates
version=1
nRows=20
nColumns=34
inDegrees=yes

Units are S.I. units (second, meters, Newtons, ...)
If the header above contains a line with 'inDegrees', this indicates whether rotational values are in degrees (yes) or radians (no).

endheader
time	pelvis_tilt	pelvis_list	pelvis_rotation	pelvis_tx	pelvis_ty	pelvis_tz	hip_flexion_r	hip_adduction_r	hip_rotation_r	knee_angle_r	ankle_angle_r	subtalar_angle_r	mtp_angle_r	hip_flexion_l	hip_adduction_l	hip_rotation_l	knee_angle_l	ankle_angle_l	subtalar_angle_l	mtp_angle_l	lumbar_extension	lumbar_bending	lumbar_rotation	arm_flex_r	arm_add_r	arm_rot_r	elbow_flex_r	pro_sup_r	arm_flex_l	arm_add_l	arm_rot_l	elbow_flex_l	pro_sup_l
      0.00000000	     -6.25993705	      0.05194917	     -1.86329157	      0.01797578	      1.31740726	     -0.09462705	      3.62979457	     -1.16508254	      1.18039003	      6.03849964	     10.00336738	    -10.35146898	      0.00000000	      4.34456893	     -3.25845486	     -0.52006294	      5.81418439	      3.69214292	     -8.40131484	      0.00000000	     -0.21211130	      1.40955261	     -1.56258610	      3.50155236	     -7.32523243	     23.14916295	     19.89317254	     71.67845930	      1.77467813	     -9.15541236	     16.85492104	     23.41885230	     67.16841613
      0.01666670	     -5.90678321	     -0.11143345	     -1.83135715	      0.01602144	      1.31703625	     -0.09603535	      2.64170540	     -0.83080685	      1.31799877	      5.26986734	     12.73159344	     -7.63399755	      0.00000000	      3.74721680	     -3.15141332	     -0.25790753	      4.90196725	      4.06780261	     -7.62543576	      0.00000000	     -0.59655473	      1.81870277	     -1.45888651	      4.20033353	     -6.73669953	     20.84519349	     18.41062684	     71.25074499	      2.46138003	     -8.48934851	     16.01889213	     23.44354783	     67.48144811
      0.03333330	     -6.10435990	      0.00383706	     -1.73287039	      0.01618030	      1.31504857	     -0.09411822	      2.75888582	     -0.76236403	      1.15592041	      4.84405791	     12.75773726	     -7.82473083	      0.00000000	      3.97997575	     -3.23125061	     -0.94585689	      5.14501512	      3.88730385	     -7.78116971	      0.00000000	     -0.68984935	      1.32068219	     -1.44488323	      4.38199557	     -6.34321569	     20.49866553	     18.66562942	     71.23399581	      2.88283207	     -8.65617642	     15.77591514	     23.49338512	     67.54136195
      0.05000000	     -5.53098070	      0.02917543	     -1.70940699	      0.01545958	      1.31349731	     -0.09371096	      2.24420011	     -0.78816358	      1.58535476	      4.70979611	     12.94637166	     -8.15400850	      0.00000000	      3.08432973	     -3.23563698	     -1.05836250	      4.68846053	      4.42009242	     -7.31500539	      0.00000000	     -1.89523093	      0.99852581	     -0.76957922	      3.36620379	     -5.23549572	     10.33280822	     21.23952012	     71.90045418	      3.32656504	     -7.98200136	     10.36109099	     24.23997953	     69.79438351
      0.06666670	     -5.61128817	      0.02940738	     -1.64872940	      0.01455486	      1.31866907	     -0.09436341	      2.32376961	     -0.80221097	      1.72369286	      4.66600561	     12.91082503	     -8.05427851	      0.00000000	      3.04880277	     -3.24556301	     -1.10739179	      4.40681547	      4.43749003	     -7.34078815	      0.00000000	     -1.84335896	      1.00332891	     -0.84905586	      3.46420597	     -5.17208685	     10.29621204	     21.28558159	     71.93143640	      3.56415712	     -7.92883610	     10.33531480	     24.31730207	     69.82181163
      0.08333330	     -5.16544735	      0.04320643	     -2.10304256	      0.01403043	      1.31758009	     -0.09344098	      1.84032793	     -0.88459598	      1.85871244	      4.64680919	     12.59144362	     -8.08571183	      0.00000000	      2.45427290	     -3.20540965	     -1.49203922	      4.16675919	      4.20822808	     -7.96705253	      0.00000000	     -2.97175391	      1.02974920	     -0.32629658	      3.26639406	     -3.93121483	     -2.06567300	     22.66430159	     93.22730688	      3.63106372	     -7.01604361	      1.64352297	     25.28470593	     86.86403606
      0.10000000	     -5.12914335	      0.07779006	     -2.11402236	      0.01507493	      1.31531453	     -0.09217797	      1.81011590	     -0.88683123	      1.80002095	      4.66786923	     12.58986236	     -8.11518747	      0.00000000	      2.44225449	     -3.18984285	     -1.57056049	      4.18497824	      4.24307935	     -8.01194037	      0.00000000	     -2.85061089	      1.00257339	     -0.27752192	      3.39674572	     -3.85706658	     -2.04347049	     22.75196316	     93.23839558	      3.76316520	     -7.03888939	      1.62039124	     25.35435992	     86.86668975
      0.11666670	     -5.18511412	      0.25722944	     -2.27769922	      0.01544246	      1.32145932	     -0.09245670	      1.77389521	     -1.08525628	      1.60393893	      4.61049933	     12.25044818	     -8.08122759	      0.00000000	      2.58798627	     -3.02975824	     -1.89486277	      4.35236953	      4.10958364	     -8.07900052	      0.00000000	     -2.92685919	      0.71450675	     -0.09606258	      3.49218859	     -3.80294040	     -1.97520210	     22.99587380	     93.30628804	      3.97104413	     -7.06783506	      1.44168741	     25.57766859	     86.88844076
      0.13333330	     -5.16357416	      0.27690666	     -2.41256321	      0.01678283	      1.31757589	     -0.09199787	      1.68784185	     -1.09021276	      1.51860978	      4.61134538	     12.25241116	     -8.13447446	      0.00000000	      2.55579558	     -3.00347180	     -1.88074070	      4.42599351	      4.11207017	     -8.06981909	      0.00000000	     -2.81686734	      0.73290894	     -0.01146952	      3.61032500	     -3.82497256	     -1.96721799	     23.07717679	     93.31878281	      4.01071861	     -7.09583000	      1.39781641	     25.63069994	     86.89276858
      0.15000000	     -5.16120709	      0.30613306	     -2.39398018	      0.01803794	      1.31886983	     -0.09104513	      1.71653483	     -1.05970541	      1.52201977	      4.59005930	     12.25328229	     -8.13333208	      0.00000000	      2.52452106	     -2.99442025	     -1.87941908	      4.44680450	      4.11134535	     -8.06869240	      0.00000000	     -2.80620146	      0.72963930	     -0.00248596	      3.62594873	     -3.83232753	     -1.96690394	     23.08745660	     93.32018167	      4.01484742	     -7.09498296	      1.39306920	     25.63708053	     86.89340004
      0.16666670	     -4.95453086	      0.36260995	     -2.53874033	      0.01735956	      1.31977393	     -0.09158496	      1.35334142	     -1.11431290	      1.96153295	      4.22482768	     11.98528282	     -8.38722919	      0.00000000	      2.29286091	     -2.94749907	     -2.16753986	      4.51206176	      4.35005160	     -7.84837679	      0.00000000	     -3.16393683	      0.58362565	      0.06269578	      3.32811770	     -4.15304871	     -1.55335426	     25.41749659	     94.66027301	      3.46349020	     -6.74220953	     -2.23330966	     27.50006450	     87.90366023
      0.18333330	     -4.95840370	      0.38446073	     -2.53212101	      0.01942390	      1.32080625	     -0.09115838	      1.35083942	     -1.10692686	      1.96517206	      4.22606665	     11.98218963	     -8.38368644	      0.00000000	      2.28932687	     -2.95519888	     -2.16711815	      4.51714711	      4.34769716	     -7.84870637	      0.00000000	     -3.15660880	      0.58142176	      0.06664400	      3.34049782	     -4.16311135	     -1.55517867	     25.41922243	     94.66121543	      3.46775597	     -6.74542747	     -2.23582178	     27.50236383	     87.90497090
      0.20000000	     -4.92789171	      0.40532653	     -2.45131923	      0.02017334	      1.31284753	     -0.08963251	      1.21792019	     -1.07526507	      1.95982794	      4.24683896	     11.98492973	     -8.38727853	      0.00000000	      2.22080850	     -2.97057447	     -2.23420327	      4.54887090	      4.38832380	     -7.90836412	      0.00000000	     -2.95650980	      0.52982533	      0.16963454	      3.53584382	     -4.32699085	     -1.58252675	     25.48539086	     94.66914418	      3.47215852	     -6.87727120	     -2.27944641	     27.52946375	     87.91573959
      0.21666670	     -4.91234114	      0.44925336	     -2.59519364	      0.02256367	      1.32280165	     -0.09013212	      1.07157413	     -1.13144693	      1.85252991	      4.25053790	     11.94323605	     -8.41882323	      0.00000000	      2.09523765	     -2.98717525	     -2.37552581	      4.63250165	      4.35298623	     -7.98238869	      0.00000000	     -2.69789902	      0.45229581	      0.22645966	      3.66665811	     -4.51970120	     -1.61683084	     25.57166076	     94.68082565	      3.43030007	     -6.99416280	     -2.32819733	     27.56168221	     87.93292322
      0.23333330	     -4.78028395	      0.52760628	     -2.93693658	      0.02533173	      1.31058392	     -0.08825349	      0.82058702	     -1.16854235	      2.26875461	      4.28589014	     11.99642647	     -8.60403190	      0.00000000	      1.67642132	     -2.91726052	     -2.81553188	      4.46669588	      4.54911824	     -8.25533601	      0.00000000	     -2.68527652	      0.32347230	      0.56051936	      2.99536977	     -4.85606057	     -1.77386780	     27.71896127	     95.52434735	      2.42954531	     -7.10168077	     -4.05412173	     29.70825036	     88.99723971
      0.25000000	     -4.72652875	      0.51859760	     -3.04334079	      0.02430959	      1.31143887	     -0.08958717	      0.78566186	     -1.16205316	      2.23240156	      4.33430338	     12.06651324	     -8.64828419	      0.00000000	      1.55621302	     -2.93201368	     -2.76496561	      4.49953013	      4.53862110	     -8.22394596	      0.00000000	     -2.43471843	      0.29987708	      0.62932178	      3.25335300	     -5.04923280	     -1.82523148	     27.83662377	     95.53008556	      2.39596548	     -7.21773496	     -4.09749682	     29.71099542	     89.01320592
      0.26666670	     -4.66374490	      0.52631550	     -3.15932187	      0.02656002	      1.31833611	     -0.09038010	      0.73899996	     -1.22386800	      2.24972194	      4.38268717	     12.10537945	     -8.65846340	      0.00000000	      1.40053039	     -2.89223455	     -2.73282131	      4.49505164	      4.51749894	     -8.19369669	      0.00000000	     -2.09873266	      0.34557499	      0.68312323	      3.51544858	     -5.36093122	     -1.90161432	     28.01342396	     95.53372662	      2.30059467	     -7.39780154	     -4.15823509	     29.72219583	     89.03052264
      0.28333330	     -4.62345051	      0.53833434	     -3.32981284	      0.02422726	      1.31836298	     -0.08961579	      0.74718387	     -1.26517131	      2.26381889	      4.37821101	     12.10224036	     -8.65512466	      0.00000000	      1.25121644	     -2.84098269	     -2.75847694	      4.46586210	      4.52157301	     -8.21085902	      0.00000000	     -1.75341928	      0.36698661	      0.68530852	      3.81285898	     -5.69752197	     -1.98325896	     28.25741917	     95.53534205	      2.29575964	     -7.62558845	     -4.22744606	     29.79080620	     89.04679612
      0.30000000	     -5.22896984	      0.59141578	     -3.70846937	      0.02029134	      1.31717972	     -0.08691338	      1.64870216	     -1.26445261	      2.76825922	      4.67501045	     11.73423434	     -9.32741437	      0.00000000	      1.88596783	     -2.83159001	     -3.03193107	      4.47598227	      4.31620266	     -8.56362148	      0.00000000	     -1.32788896	      0.44009824	      0.48785625	      3.20664774	     -6.18422283	     -2.54473706	     32.93657761	     95.93624739	      0.97942186	     -8.04890214	     -5.70953844	     32.86022150	     89.78982211
      0.31666670	     -5.29256433	      0.58047713	     -3.91137528	      0.01816060	      1.31519866	     -0.08589432	      2.06245100	     -1.18903648	      2.72120814	      4.98166590	     11.59106195	     -9.44276509	      0.00000000	      2.23955024	     -2.92572428	     -3.31728433	      4.89174823	      4.24964836	     -8.80722957	      0.00000000	     -1.46869900	      0.36197451	      0.51674224	      4.20228115	     -6.51369848	     -2.82571968	     33.70725005	     95.97827701	      1.45177990	     -8.61700459	     -6.02184992	     33.40623416	     89.92285446
